HIERARCHY
ROOT Pelvis
{
	OFFSET 0.000000 0.000000 0.000000
	CHANNELS 6 Xposition Yposition Zposition Xrotation Yrotation Zrotation
	JOINT LeftUpLeg_virtual
	{
		OFFSET 0.000000 0.000000 0.000000
		CHANNELS 3 Xrotation Yrotation Zrotation
		JOINT LeftUpLeg
		{
			OFFSET 18.735201 -5.666702 -4.541200
			CHANNELS 3 Xrotation Yrotation Zrotation
			JOINT LeftLeg
			{
				OFFSET -0.021200 -31.938179 0.493100
				CHANNELS 3 Xrotation Yrotation Zrotation
				JOINT LeftFoot
				{
					OFFSET 0.021200 -31.938179 -4.336299
					CHANNELS 3 Xrotation Yrotation Zrotation
					JOINT LeftToeBase
					{
						OFFSET 0.943001 -26.722000 15.023500
						CHANNELS 3 Xrotation Yrotation Zrotation
						End Site
						{
							OFFSET 0 0 0
						}
					}
				}
			}
		}
	}
	JOINT RightUpLeg_virtual
	{
		OFFSET 0.000000 0.000000 0.000000
		CHANNELS 3 Xrotation Yrotation Zrotation
		JOINT RightUpLeg
		{
			OFFSET -18.735201 -5.666702 -4.541200
			CHANNELS 3 Xrotation Yrotation Zrotation
			JOINT RightLeg
			{
				OFFSET 0.018946 -31.938133 0.493100
				CHANNELS 3 Xrotation Yrotation Zrotation
				JOINT RightFoot
				{
					OFFSET -0.018946 -31.938126 -4.336299
					CHANNELS 3 Xrotation Yrotation Zrotation
					JOINT RightToeBase
					{
						OFFSET -0.943001 -26.722004 15.023500
						CHANNELS 3 Xrotation Yrotation Zrotation
						End Site
						{
							OFFSET 0 0 0
						}
					}
				}
			}
		}
	}
	JOINT Hips_virtual
	{
		OFFSET 0.000000 0.000000 0.000000
		CHANNELS 3 Xrotation Yrotation Zrotation
		JOINT Hips
		{
			OFFSET -0.000000 -0.000000 -0.000000
			CHANNELS 3 Xrotation Yrotation Zrotation
			JOINT Spine
			{
				OFFSET 0.000000 10.199997 -0.299500
				CHANNELS 3 Xrotation Yrotation Zrotation
				JOINT Spine1
				{
					OFFSET 0.000000 11.900002 -1.516600
					CHANNELS 3 Xrotation Yrotation Zrotation
					JOINT Spine2
					{
						OFFSET 0.000000 13.600006 -2.842500
						CHANNELS 3 Xrotation Yrotation Zrotation
						JOINT Neck_virtual
						{
							OFFSET 0.000000 0.000000 0.000000
							CHANNELS 3 Xrotation Yrotation Zrotation
							JOINT Neck
							{
								OFFSET 0.000000 9.624100 -2.890100
								CHANNELS 3 Xrotation Yrotation Zrotation
								JOINT Head
								{
									OFFSET 0.000000 14.068802 -1.351900
									CHANNELS 3 Xrotation Yrotation Zrotation
									End Site
									{
										OFFSET 0 0 0
									}
								}
							}
						}
						JOINT LeftShoulder_virtual
						{
							OFFSET 0.000000 0.000000 0.000000
							CHANNELS 3 Xrotation Yrotation Zrotation
							JOINT LeftShoulder
							{
								OFFSET 15.263000 10.923401 -0.547700
								CHANNELS 3 Xrotation Yrotation Zrotation
								JOINT LeftArm
								{
									OFFSET 25.438599 -2.830597 -13.032500
									CHANNELS 3 Xrotation Yrotation Zrotation
									JOINT LeftForeArm
									{
										OFFSET 29.960503 0.000000 0.000000
										CHANNELS 3 Xrotation Yrotation Zrotation
										JOINT LeftHand
										{
											OFFSET 27.849251 0.000000 0.000000
											CHANNELS 3 Xrotation Yrotation Zrotation
											End Site
											{
												OFFSET 0 0 0
											}
										}
									}
								}
							}
						}
						JOINT RightShoulder_virtual
						{
							OFFSET 0.000000 0.000000 0.000000
							CHANNELS 3 Xrotation Yrotation Zrotation
							JOINT RightShoulder
							{
								OFFSET -15.263000 10.923401 -0.547700
								CHANNELS 3 Xrotation Yrotation Zrotation
								JOINT RightArm
								{
									OFFSET -25.438599 -2.830597 -13.032500
									CHANNELS 3 Xrotation Yrotation Zrotation
									JOINT RightForeArm
									{
										OFFSET -29.960503 0.000000 0.000000
										CHANNELS 3 Xrotation Yrotation Zrotation
										JOINT RightHand
										{
											OFFSET -27.849251 0.000000 0.000000
											CHANNELS 3 Xrotation Yrotation Zrotation
											End Site
											{
												OFFSET 0 0 0
											}
										}
									}
								}
							}
						}
					}
				}
			}
		}
	}
}
MOTION
Frames: 13
Frame Time: 0.03333333
-1.701245 93.711334 2.385727 0.000000 0.000000 0.000000 2.912644 -28.993309 1.190043 -19.101275 17.301969 13.857759 23.892616 12.123109 -1.505848 -6.535913 -3.224980 -8.272332 0.000000 0.000000 0.000000 2.912644 -28.993309 1.190043 -12.326938 -0.373917 -11.129680 16.879170 9.900357 0.865251 -8.229485 -1.386816 8.928339 0.000000 0.000000 0.000000 2.912644 -28.993309 1.190043 0.000000 0.000000 0.000000 7.836037 -0.358657 -2.682607 1.099251 -0.880570 2.383463 0.000000 0.000000 0.000000 1.108681 -0.590455 2.446367 -0.922940 3.567100 -1.380653 0.000000 0.000000 0.000000 1.108681 -0.590455 2.446367 -0.057390 -8.759444 -0.061011 -55.249742 0.330144 -41.449898 11.585941 -65.829554 13.007158 0.000000 0.000000 0.000000 1.108681 -0.590455 2.446367 4.849288 7.760151 5.560448 -0.933503 -2.176875 61.845662 11.299281 18.943444 -3.987523 0.000000 0.000000 0.000000 
-1.619392 93.672760 2.275028 0.000000 0.000000 0.000000 2.958266 -28.864516 1.169054 -19.505796 17.250386 13.981437 24.252306 12.666478 -1.494860 -6.574443 -3.925549 -8.323542 0.000000 0.000000 0.000000 2.958266 -28.864516 1.169054 -12.517073 -0.385457 -11.079495 17.100311 9.698792 0.821966 -8.286004 -1.379803 8.929368 0.000000 0.000000 0.000000 2.958266 -28.864516 1.169054 0.000000 0.000002 0.000000 7.802418 -0.358479 -2.686689 1.074049 -0.871344 2.364664 0.000000 0.000000 0.000000 1.083488 -0.588034 2.427852 -0.906644 3.573652 -1.396253 0.000000 0.000000 0.000000 1.083488 -0.588034 2.427852 -0.004171 -8.315562 -0.161325 -55.335263 0.717931 -41.094810 10.897137 -65.775418 12.310799 0.000000 0.000000 0.000000 1.083488 -0.588034 2.427852 4.851988 7.811878 5.709651 -0.844156 -2.132282 61.674614 11.420383 18.937669 -4.006109 0.000000 0.000000 0.000000 
-1.526989 93.632011 2.173279 0.000000 0.000000 0.000000 3.001580 -28.714201 1.140380 -19.934252 17.223980 14.115308 24.640403 13.207746 -1.486521 -6.631811 -4.675924 -8.364465 0.000000 0.000000 0.000000 3.001580 -28.714201 1.140380 -12.671629 -0.460804 -11.020460 17.286601 9.467948 0.734705 -8.342630 -1.359245 8.980487 0.000000 0.000000 0.000000 3.001580 -28.714201 1.140380 0.000000 0.000000 0.000000 7.765421 -0.351240 -2.681527 1.051469 -0.856355 2.346640 0.000000 0.000000 0.000000 1.060734 -0.578901 2.409568 -0.955177 3.583765 -1.334381 0.000000 0.000000 0.000000 1.060734 -0.578901 2.409568 -0.095201 -7.833572 -0.261091 -55.289060 1.044025 -40.597541 10.451490 -65.790431 11.849280 0.000000 0.000000 0.000000 1.060734 -0.578901 2.409568 4.852112 7.875468 5.834438 -0.731460 -2.101487 61.529991 11.542490 18.958853 -4.028576 0.000000 0.000000 0.000000 
-1.418947 93.585342 2.087482 0.000000 0.000000 0.000000 3.034828 -28.503401 1.087624 -20.427469 17.216752 14.232113 25.058050 12.360166 -1.570978 -6.697786 -4.140618 -8.084822 0.000000 0.000000 0.000000 3.034828 -28.503401 1.087624 -12.763222 -0.591229 -10.949019 17.438204 9.175452 0.611010 -8.413430 -1.331840 9.082954 0.000000 0.000000 0.000000 3.034828 -28.503401 1.087624 0.000000 0.000000 0.000000 7.720077 -0.330687 -2.650183 1.037690 -0.825892 2.332715 0.000000 0.000000 0.000000 1.046381 -0.551329 2.393829 -0.977234 3.618373 -1.310256 0.000000 0.000000 0.000000 1.046381 -0.551329 2.393829 -0.122211 -7.332433 -0.371027 -55.212958 1.531635 -40.105617 9.829972 -65.922595 11.210634 0.000000 0.000000 0.000000 1.046381 -0.551329 2.393829 4.844679 7.972232 5.880416 -0.550611 -2.122589 61.472850 11.675093 19.081214 -4.071083 0.000000 0.000000 0.000000 
-1.304164 93.536583 2.011684 0.000000 0.000000 0.000000 3.072730 -28.263307 1.028590 -20.943088 17.218629 14.383248 25.526164 12.395935 -1.594220 -6.792163 -4.526530 -7.993475 0.000000 0.000000 0.000000 3.072730 -28.263307 1.028590 -12.825819 -0.755741 -10.870880 17.560643 8.852454 0.463837 -8.484678 -1.298678 9.218851 0.000000 0.000000 0.000000 3.072730 -28.263307 1.028590 0.000000 0.000002 0.000000 7.669669 -0.301493 -2.603671 1.024542 -0.785728 2.316042 0.000000 0.000000 0.000000 1.032501 -0.513464 2.374547 -0.994175 3.693158 -1.307286 0.000000 0.000000 0.000000 1.032501 -0.513464 2.374547 -0.121056 -6.796881 -0.488152 -55.142938 2.029465 -39.651700 9.135334 -66.083842 10.497815 0.000000 0.000000 0.000000 1.032501 -0.513464 2.374547 4.835495 8.084639 5.913533 -0.348454 -2.133824 61.427108 11.793706 19.189406 -4.098388 0.000000 0.000000 0.000000 
-1.188173 93.488174 1.939512 0.000000 0.000000 0.000000 3.132789 -28.017655 0.971957 -21.481479 17.230713 14.539775 25.987234 12.430810 -1.612047 -6.883614 -4.928569 -7.899819 0.000000 0.000000 0.000000 3.132789 -28.017655 0.971957 -12.880898 -0.938297 -10.782998 17.634956 8.521898 0.305875 -8.535407 -1.260817 9.373804 0.000000 0.000000 0.000000 3.132789 -28.017655 0.971957 0.000000 0.000000 0.000000 7.618973 -0.271657 -2.540611 1.002664 -0.742646 2.286283 0.000000 0.000000 0.000000 1.009841 -0.474214 2.342132 -1.025547 3.799636 -1.277530 0.000000 0.000000 0.000000 1.009841 -0.474214 2.342132 -0.121625 -6.150414 -0.609531 -55.115033 2.492395 -39.197055 8.687220 -66.249065 10.025767 0.000000 0.000000 0.000000 1.009841 -0.474214 2.342132 4.828862 8.206948 5.994846 -0.170088 -2.075640 61.317354 11.837805 19.144426 -4.051615 0.000000 0.000000 0.000000 
-1.065888 93.437500 1.884668 0.000000 0.000000 0.000000 3.198254 -27.749985 0.927013 -22.011818 17.258507 14.670454 26.434743 12.457007 -1.625171 -6.979299 -5.348585 -7.794808 0.000000 0.000000 0.000000 3.198254 -27.749985 0.927013 -12.926710 -1.116654 -10.718823 17.718863 8.178180 0.146805 -8.607024 -1.227418 9.548026 0.000000 0.000000 0.000000 3.198254 -27.749985 0.927013 0.000000 0.000001 0.000000 7.558619 -0.231313 -2.480222 0.981919 -0.683668 2.257198 0.000000 0.000000 0.000000 0.988249 -0.419405 2.309415 -1.034513 3.968168 -1.271904 0.000000 0.000000 0.000000 0.988249 -0.419405 2.309415 -0.137809 -5.281943 -0.732836 -55.099754 2.847242 -38.843173 8.517970 -66.232235 9.832253 0.000000 0.000000 0.000000 0.988249 -0.419405 2.309415 4.823351 8.325182 6.084429 0.027501 -1.981524 61.197388 11.923155 19.091916 -4.012296 0.000000 0.000000 0.000000 
-0.930004 93.381622 1.862553 0.000000 0.000000 0.000000 3.257491 -27.447156 0.910306 -22.500889 17.310829 14.735047 26.857673 12.470511 -1.633505 -7.086521 -5.787065 -7.668183 0.000000 0.000000 0.000000 3.257491 -27.447156 0.910306 -12.966512 -1.266208 -10.719582 17.869636 7.819041 -0.003719 -8.742758 -1.208672 9.745799 0.000000 0.000000 0.000000 3.257491 -27.447156 0.910306 0.000000 0.000001 0.000000 7.477514 -0.172132 -2.452258 0.970695 -0.596120 2.244733 0.000000 0.000000 0.000000 0.976071 -0.335537 2.291520 -1.005020 4.203355 -1.259721 0.000000 0.000000 0.000000 0.976071 -0.335537 2.291520 -0.123270 -4.545783 -0.861812 -55.151769 3.387742 -38.416037 8.962716 -66.224613 10.231343 0.000000 0.000000 0.000000 0.976071 -0.335537 2.291520 4.819875 8.411057 6.148032 0.298621 -1.832815 61.114784 12.200181 19.167179 -4.066569 0.000000 0.000000 0.000000 
-0.777579 93.325073 1.872408 0.000000 0.000000 0.000000 3.312549 -27.122621 0.909785 -22.949149 17.380747 14.743860 27.257236 12.477569 -1.636001 -7.208021 -6.232290 -7.522419 0.000000 0.000000 0.000000 3.312549 -27.122621 0.909785 -12.978946 -1.379811 -10.775604 18.020923 7.458969 -0.133164 -8.899161 -1.206512 9.963381 0.000000 0.000000 0.000000 3.312549 -27.122621 0.909785 0.000000 -0.000001 0.000000 7.386107 -0.097692 -2.424517 0.964204 -0.486273 2.231983 0.000000 0.000000 0.000000 0.968520 -0.229712 2.272018 -0.963234 4.516588 -1.279102 0.000000 0.000000 0.000000 0.968520 -0.229712 2.272018 -0.097634 -3.831644 -0.993992 -55.094980 4.077412 -37.778507 9.204615 -66.373183 10.434455 0.000000 0.000000 0.000000 0.968520 -0.229712 2.272018 4.816400 8.501685 6.229781 0.563644 -1.726072 61.017358 12.505182 19.261127 -4.145889 0.000000 0.000000 0.000000 
-0.603041 93.271400 1.920473 0.000000 0.000000 0.000000 3.363272 -26.792273 0.917448 -23.346249 17.464611 14.697001 27.635835 12.486926 -1.632300 -7.354898 -6.671738 -7.357622 0.000000 0.000000 0.000000 3.363272 -26.792273 0.917448 -12.941548 -1.447961 -10.888117 18.116237 7.116947 -0.228265 -9.042586 -1.223679 10.199529 0.000000 0.000000 0.000000 3.363272 -26.792273 0.917448 0.000000 0.000001 0.000000 7.290948 -0.005201 -2.366240 0.959095 -0.352448 2.206370 0.000000 0.000000 0.000000 0.962315 -0.101334 2.238350 -0.942612 4.910649 -1.294659 0.000000 0.000000 0.000000 0.962315 -0.101334 2.238350 -0.072349 -3.062204 -1.127436 -54.777113 4.617403 -36.812520 8.370516 -66.646568 9.565099 0.000000 0.000000 0.000000 0.962315 -0.101334 2.238350 4.810349 8.631819 6.376239 0.757572 -1.787257 60.849998 12.709522 19.330649 -4.212908 0.000000 0.000000 0.000000 
-0.414578 93.221359 1.998018 0.000000 0.000000 0.000000 3.404772 -26.435465 0.937894 -23.696382 17.559042 14.587754 27.984892 12.490939 -1.622301 -7.509516 -7.113375 -7.152265 0.000000 0.000000 0.000000 3.404772 -26.435465 0.937894 -12.862129 -1.455160 -11.057827 18.192812 6.778865 -0.280233 -9.191506 -1.265233 10.437151 0.000000 0.000000 0.000000 3.404772 -26.435465 0.937894 0.000000 0.000000 0.000000 7.192804 0.095267 -2.302735 0.959409 -0.205206 2.170834 0.000000 0.000000 0.000000 0.961657 0.039521 2.194104 -0.874927 5.379019 -1.347481 0.000000 0.000000 0.000000 0.961657 0.039521 2.194104 -0.049787 -2.182468 -1.260930 -54.297798 5.181453 -35.736069 6.714775 -67.007154 7.904399 0.000000 0.000000 0.000000 0.961657 0.039521 2.194104 4.802325 8.780393 6.545480 0.892058 -1.910163 60.669702 12.855441 19.314522 -4.255131 0.000000 0.000000 0.000000 
-0.212714 93.179871 2.110733 0.000000 0.000000 0.000000 3.425122 -26.015800 0.980980 -23.954216 17.672539 14.386643 28.233914 12.469329 -1.602698 -7.633991 -7.566186 -6.910493 0.000000 0.000000 0.000000 3.425122 -26.015800 0.980980 -12.752553 -1.595540 -11.255347 18.315919 6.350246 -0.446270 -9.354887 -1.276914 10.767579 0.000000 0.000000 0.000000 3.425122 -26.015800 0.980980 0.000000 0.000001 0.000000 7.094490 0.193019 -2.253893 0.972165 -0.052522 2.118528 0.000000 0.000000 0.000000 0.973771 0.184328 2.133068 -0.812164 5.841957 -1.389015 0.000000 0.000000 0.000000 0.973771 0.184328 2.133068 -0.019032 -1.270452 -1.394886 -53.841418 5.802495 -34.630251 5.045494 -67.352851 6.229872 0.000000 0.000000 0.000000 0.973771 0.184328 2.133068 4.791960 8.942294 6.709530 0.919727 -2.028047 60.525701 12.912754 19.056837 -4.223224 0.000000 0.000000 0.000000 
0.017077 93.122253 2.251364 0.000000 0.000000 0.000000 3.549380 -25.554412 1.044001 -24.354616 17.748716 14.184258 28.576128 12.427394 -1.588201 -7.809346 -8.008737 -6.647649 0.000000 0.000000 0.000000 3.549380 -25.554412 1.044001 -12.847459 -1.687905 -11.445929 18.632227 5.898641 -0.615728 -9.476132 -1.293301 11.127888 0.000000 0.000000 0.000000 3.549380 -25.554412 1.044001 0.000000 0.000001 0.000000 6.925096 0.319979 -2.181074 0.952017 0.138014 2.082961 0.000000 0.000000 0.000000 0.953015 0.366747 2.086823 -0.721344 6.314967 -1.459684 0.000000 0.000000 0.000000 0.953015 0.366747 2.086823 0.036096 -0.371894 -1.530130 -53.465495 6.524814 -33.706772 4.056294 -67.682797 5.227726 0.000000 0.000000 0.000000 0.953015 0.366747 2.086823 4.778744 9.110166 6.822623 1.126980 -2.293087 60.418282 12.886384 18.974067 -4.221343 0.000000 0.000000 0.000000 
